<svg width="1280" height="800" viewBox="0 0 1280 800" fill="none" xmlns="http://www.w3.org/2000/svg">
<rect width="1280" height="800" fill="#080808"/>
<path fill-rule="evenodd" clip-rule="evenodd" d="M447 370H474.227L549.756 417.052V370H568.517V430H541.514L465.93 382.912V430H447V370ZM596.757 370H697.417V382.689H606.017C604.597 382.694 603.236 383.32 602.232 384.429C601.228 385.539 600.663 387.042 600.659 388.611C600.659 391.867 603.071 393.968 606.017 393.968H685.996C694.456 393.968 701.384 402.509 701.384 412.264C701.384 422.016 694.458 429.998 685.996 429.998H580.01V417.364H675.93C677.172 417.36 678.363 416.813 679.242 415.843C680.121 414.872 680.617 413.557 680.621 412.184C680.617 410.811 680.122 409.495 679.243 408.523C678.364 407.552 677.173 407.005 675.93 407.001H596.757C587.545 407.001 580.01 398.676 580.01 388.499C580.01 378.325 587.545 370 596.757 370ZM706.01 370H734.144L768.108 390.729L803.25 370H832.135L782.303 399.391L832.45 430H804.316L767.994 407.832L730.409 430H701.52L753.797 399.165L706.01 370Z" fill="white"/>
</svg>
